<svg xmlns="http://www.w3.org/2000/svg" width="1156.63" height="140.19" viewBox="0 0 1156.63 140.19"><g id="Calque_1" data-name="Calque 1"><path d="M1028.32,81.23v14h-11.17v29.38c0,2.9.12,4.83,1.08,5.76s2.74,1.47,5.64,1.47c1,0,1.45-.08,2.37-.14s2.08-.2,2.08-.39v13.25c0,.26-2.7.38-4.47.43s-3.33.14-5,.14a47.78,47.78,0,0,1-7.44-.54,17.57,17.57,0,0,1-6.19-2.11,10.19,10.19,0,0,1-3.78-4.44c-1-1.89-1-4.41-1-7.54V95.19H989.23v-14h11.18V64.47h16.75V81.23ZM961.8,115.64a24.71,24.71,0,0,1-3.31.88c-1.23.26-2.45.44-3.81.6s-2.69.36-4,.63a20.57,20.57,0,0,0-3.71.94,10.46,10.46,0,0,0-3.26,1.61,8.24,8.24,0,0,0-2.21,2.58,8.4,8.4,0,0,0-.82,4,8.19,8.19,0,0,0,.83,3.86,6.76,6.76,0,0,0,2.27,2.44,10.27,10.27,0,0,0,3.36,1.29,22.6,22.6,0,0,0,3.94.32c3.36,0,6-.51,7.8-1.65a11.32,11.32,0,0,0,4.08-4,12.75,12.75,0,0,0,1.25-4.74,21.89,21.89,0,0,0-.07-3.84v-6.36c0,.63-1.25,1.12-2.3,1.5M928.54,91.18A19.85,19.85,0,0,1,935.26,85a28.44,28.44,0,0,1,9.17-3.32,51.84,51.84,0,0,1,10.24-1,69.79,69.79,0,0,1,9.49.66A29,29,0,0,1,972.92,84a16.34,16.34,0,0,1,6,5.33c1.65,2.27,2,5.34,2,9.05v32.31a59.55,59.55,0,0,0,1,8,13.94,13.94,0,0,0,1.94,5.76l-17.16.06a22.9,22.9,0,0,1-.7-3,23.33,23.33,0,0,1-.41-3.08,22.16,22.16,0,0,1-9.57,5.88A39.49,39.49,0,0,1,944.7,146a31.25,31.25,0,0,1-8.31-1.1,19,19,0,0,1-6.73-3.37,15.66,15.66,0,0,1-4.5-5.73,20.22,20.22,0,0,1-1.6-8.29,17.79,17.79,0,0,1,1.87-8.67,15.38,15.38,0,0,1,4.79-5.47,21,21,0,0,1,6.72-3,72.18,72.18,0,0,1,7.62-1.64c2.54-.39,5.08-.69,7.56-1a45.77,45.77,0,0,0,6.63-1.07,11.27,11.27,0,0,0,4.51-2.11,4.58,4.58,0,0,0,1.56-4,9,9,0,0,0-.9-4.41,6.77,6.77,0,0,0-2.38-2.49,9.56,9.56,0,0,0-3.48-1.2,25.39,25.39,0,0,0-4.22-.3c-3.34,0-6,.34-7.9,1.79a9.82,9.82,0,0,0-3.33,6.78H925.54a22.77,22.77,0,0,1,3-9.59m-11.91-10v14h-14v29.38a8.07,8.07,0,0,0,1.91,5.76c.95.95,3.13,1.47,6,1.47,1,0,2.29-.08,3.14-.14s2.92-.2,2.92-.39v13.25c-2.79.26-3.3.38-5.07.43s-3.59.14-5.3.14a49,49,0,0,1-7.55-.54,17.93,17.93,0,0,1-6.31-2.11,11.77,11.77,0,0,1-4.58-4.44,15.16,15.16,0,0,1-1.91-7.54V95.19h-8.38v-14h8.38V64.47h16.76V81.23Zm-85,47.26a11.18,11.18,0,0,0,3,3.54,12,12,0,0,0,4.14,2,17.52,17.52,0,0,0,4.81.67,19.24,19.24,0,0,0,3.78-.36,11.82,11.82,0,0,0,3.58-1.31,7.94,7.94,0,0,0,2.7-2.38,6.38,6.38,0,0,0,1.1-3.8c0-2.54-1.7-4.47-5.11-5.76a96,96,0,0,0-14.21-3.79c-2.48-.61-4.93-1.28-7.26-2a25.12,25.12,0,0,1-6.31-3,15.11,15.11,0,0,1-4.42-4.7,13.24,13.24,0,0,1-1.7-6.95A18.44,18.44,0,0,1,818,90.84a17.19,17.19,0,0,1,6.17-6,27.42,27.42,0,0,1,8.68-3.14,53.63,53.63,0,0,1,9.82-.86,49.78,49.78,0,0,1,9.76.94A25.28,25.28,0,0,1,861,85a20.13,20.13,0,0,1,6.19,6.14c1.63,2.55,2.58,6.86,2.91,9.65H853.86c-.29-2.79-1.49-5.59-3.73-6.73a17.18,17.18,0,0,0-7.91-1.78,23.29,23.29,0,0,0-3.13.17,9.23,9.23,0,0,0-3.05.74,6.82,6.82,0,0,0-2.34,1.71,4.58,4.58,0,0,0-1,3.09,4.53,4.53,0,0,0,1.73,3.67,12.62,12.62,0,0,0,4.34,2.37,58.13,58.13,0,0,0,6.21,1.63c2.28.46,4.67,1,7.08,1.53a71.8,71.8,0,0,1,7.25,2,24.21,24.21,0,0,1,6.28,3.18,15.08,15.08,0,0,1,4.44,4.91,14.57,14.57,0,0,1,1.67,7.26,20.09,20.09,0,0,1-2.42,10.25,20.5,20.5,0,0,1-6.44,6.66,26.61,26.61,0,0,1-9.05,3.53,51.52,51.52,0,0,1-10.4,1,51,51,0,0,1-10.52-1.1,28.3,28.3,0,0,1-9.22-3.59,23.26,23.26,0,0,1-6.58-7.24c-1.72-2.77-2.63-5.42-2.8-11h16.2c0,2.8.36,4,1.13,5.39M746.9,100a28.27,28.27,0,0,1,16.53-16.93,36.32,36.32,0,0,1,13.21-2.3,37,37,0,0,1,13.25,2.3A28.24,28.24,0,0,1,806.47,100a38.1,38.1,0,0,1,2.28,13.57A37.25,37.25,0,0,1,806.47,127,29.59,29.59,0,0,1,800,137.3a28.22,28.22,0,0,1-10.11,6.53,36.75,36.75,0,0,1-13.25,2.29,36.11,36.11,0,0,1-13.21-2.29,28.15,28.15,0,0,1-10.07-6.53A29.37,29.37,0,0,1,746.9,127a37.46,37.46,0,0,1-2.29-13.41A38.32,38.32,0,0,1,746.9,100m15.51,20.78a19.87,19.87,0,0,0,2.41,6.37,12.86,12.86,0,0,0,4.64,4.51,13.9,13.9,0,0,0,7.18,1.69,14.49,14.49,0,0,0,7.22-1.69,12.78,12.78,0,0,0,4.64-4.51A19.28,19.28,0,0,0,791,120.8a36.51,36.51,0,0,0,.69-7.25,37.42,37.42,0,0,0-.69-7.34,18.67,18.67,0,0,0-2.47-6.35,13.1,13.1,0,0,0-11.86-6.25,13.42,13.42,0,0,0-7.18,1.73,13.94,13.94,0,0,0-4.64,4.52,19.23,19.23,0,0,0-2.41,6.35,36,36,0,0,0-.72,7.34,35.1,35.1,0,0,0,.72,7.25M721.17,81.23v14h-.5a14.34,14.34,0,0,1,3.24-5.94,23.18,23.18,0,0,1,4.67-4.51,23.81,23.81,0,0,1,5.68-2.85,18.56,18.56,0,0,1,5.86-1c1.13,0,3.39.08,3.39.5V97.22a10.33,10.33,0,0,0-2.53-.45c-1.11-.09-2-.15-3.07-.15A17.71,17.71,0,0,0,730,98.2a13.49,13.49,0,0,0-5.14,4.25,17.23,17.23,0,0,0-2.85,6.3,33.08,33.08,0,0,0-.88,7.8v28.91H704.42V81.23ZM673.7,145.45v-8.38h0a24.07,24.07,0,0,1-8.41,7.24,24.4,24.4,0,0,1-10.55,2.1,29.27,29.27,0,0,1-11.21-2,16.1,16.1,0,0,1-6.9-5.16,20,20,0,0,1-3.7-8.08,52.66,52.66,0,0,1-1.16-10.55V81.23h16.75v36.33c0,5.1,1.1,9,2.71,11.45s4.59,3.78,8.68,3.78c4.61,0,8.26-1.37,10.33-4.13s3.42-7.32,3.42-13.63V81.23h16.75v64.22Zm-92.53-15.88c2.53,2.54,6.22,3.77,11,3.77a15.52,15.52,0,0,0,8.88-2.27c2.46-1.73,4-2.37,4.56-5.16h15c-2.41,5.58-6.11,12.51-11.06,15.7s-11,4.64-18,4.64a35.65,35.65,0,0,1-13.22-2.4,27.9,27.9,0,0,1-10-6.69,30.47,30.47,0,0,1-6.31-10.34,37.84,37.84,0,0,1-2.21-13.21,35.75,35.75,0,0,1,2.27-13,30,30,0,0,1,16.5-17.3,32,32,0,0,1,12.92-2.5,29.4,29.4,0,0,1,13.82,3,27.09,27.09,0,0,1,9.64,8.21,33.61,33.61,0,0,1,5.48,11.73,41.44,41.44,0,0,1,1.16,13.74H577c.25,5.59,1.63,9.58,4.2,12m19.26-32.83c-2-2.23-5.13-3.25-9.29-3.25a14.84,14.84,0,0,0-6.81,1.44A13.56,13.56,0,0,0,580,98.37a12.15,12.15,0,0,0-2.29,4.16c-.43,1.48-.69,3.83-.76,3.83H604.7c-.83-2.79-2.26-7.38-4.27-9.62" transform="translate(-10.77 -7.05)" style="fill:#77787b"/><g id="EUflag"><polygon points="1156.63 138.35 1156.63 57.42 1035.24 57.42 1035.24 138.35 1156.63 138.35" style="fill:#004494"/></g><polygon points="1098.05 69.73 1102.1 69.73 1098.84 72.28 1100.1 76.31 1096.85 73.82 1093.59 76.31 1094.88 72.28 1091.58 69.73 1095.62 69.73 1096.85 65.79 1098.05 69.73" style="fill:#ffed00"/><polygon points="1098.19 123.66 1102.25 123.66 1098.99 126.11 1100.25 129.99 1097 127.6 1093.75 129.99 1095.03 126.11 1091.73 123.66 1095.77 123.66 1097 119.88 1098.19 123.66" style="fill:#ffed00"/><polygon points="1111.54 120.08 1115.59 120.08 1112.33 122.53 1113.6 126.42 1110.34 124.03 1107.09 126.42 1108.37 122.53 1105.07 120.08 1109.12 120.08 1110.34 116.3 1111.54 120.08" style="fill:#ffed00"/><polygon points="1111.54 73.32 1115.59 73.32 1112.33 75.77 1113.6 79.66 1110.34 77.26 1107.09 79.66 1108.37 75.77 1105.07 73.32 1109.12 73.32 1110.34 69.53 1111.54 73.32" style="fill:#ffed00"/><polygon points="1121.44 83.23 1125.49 83.23 1122.22 85.67 1123.5 89.56 1120.24 87.17 1117 89.56 1118.27 85.67 1114.97 83.23 1119.02 83.23 1120.24 79.44 1121.44 83.23" style="fill:#ffed00"/><polygon points="1121.44 110.32 1125.49 110.32 1122.22 112.77 1123.5 116.66 1120.24 114.26 1116.99 116.66 1118.27 112.77 1114.97 110.32 1119.02 110.32 1120.24 106.52 1121.44 110.32" style="fill:#ffed00"/><polygon points="1125.15 96.56 1129.21 96.56 1125.95 99.02 1127.21 102.9 1123.96 100.5 1120.71 102.9 1121.99 99.02 1118.69 96.56 1122.73 96.56 1123.96 92.78 1125.15 96.56" style="fill:#ffed00"/><polygon points="1084.45 73.36 1088.5 73.36 1085.23 75.81 1086.5 79.7 1083.24 77.3 1079.99 79.7 1081.27 75.81 1077.98 73.36 1082.02 73.36 1083.24 69.57 1084.45 73.36" style="fill:#ffed00"/><polygon points="1074.82 83.26 1078.88 83.26 1075.61 85.71 1076.87 89.59 1073.62 87.2 1070.37 89.59 1071.65 85.71 1068.35 83.26 1072.4 83.26 1073.62 79.47 1074.82 83.26" style="fill:#ffed00"/><polygon points="1071.24 96.6 1075.3 96.6 1072.03 99.05 1073.3 102.93 1070.05 100.55 1066.79 102.93 1068.07 99.05 1064.78 96.6 1068.82 96.6 1070.05 92.81 1071.24 96.6" style="fill:#ffed00"/><polygon points="1074.82 110.35 1078.88 110.35 1075.61 112.81 1076.87 116.69 1073.62 114.3 1070.37 116.69 1071.65 112.81 1068.35 110.35 1072.4 110.35 1073.62 106.57 1074.82 110.35" style="fill:#ffed00"/><polygon points="1084.59 120.12 1088.64 120.12 1085.37 122.57 1086.63 126.45 1083.38 124.06 1080.13 126.45 1081.42 122.57 1078.12 120.12 1082.16 120.12 1083.38 116.33 1084.59 120.12" style="fill:#ffed00"/></g><g id="Calque_2" data-name="Calque 2"><g id="layer1"><g id="g15525"><path id="path5555" d="M10.78,58.24S94.15,47.45,96.51,47.07a94.27,94.27,0,0,0,9.8-2.1,62.44,62.44,0,0,0,18.45-8.38c5.27-3.54,10.17-8.68,15-14.32a138.46,138.46,0,0,0,9.35-12.78V7.31a124.54,124.54,0,0,1-10.76,13.94,74.43,74.43,0,0,1-15,13,59.17,59.17,0,0,1-17.8,7.6A90,90,0,0,1,96,43.72c-2.3.32-4.68.57-7,.81l-78.26,8.3v5.41Z" transform="translate(-10.77 -7.05)" style="fill:#bdbcbc"/><path id="path5559" d="M122.59,44.27a59,59,0,0,1-17.92,6.52c-2.84.58-6,1.05-9.49,1.43-2.08.23-4.17.41-6.27.59-1.13.09-2.26.2-3.39.3-25.55,2.29-51,4.73-74.74,7v5.41c23.95-2.89,49.55-5.95,75.1-8.84l3.4-.38c2.1-.23,4.19-.46,6.29-.74,3.64-.48,6.82-1,9.72-1.7a61.77,61.77,0,0,0,18.6-7.27c5.37-3.22,10.12-7.74,15.23-13.26a150.8,150.8,0,0,0,10-12.85v-2a134.12,134.12,0,0,1-11.26,13.52,69.62,69.62,0,0,1-15.3,12.22" transform="translate(-10.77 -7.05)" style="fill:#bdbcbc"/><path id="path5563" d="M137.18,42.94a65,65,0,0,1-15.79,10.91,65.11,65.11,0,0,1-18,5.45c-2.83.47-5.91.86-9.41,1.17L10.78,67.3v5.4l73.93-7.84,9.57-1c3.6-.42,6.74-.89,9.6-1.43a68,68,0,0,0,18.64-6.12c5.56-2.81,11.11-7.49,16.27-12.44a122,122,0,0,0,10.36-12.09V30a116.41,116.41,0,0,1-12,13" transform="translate(-10.77 -7.05)" style="fill:#bdbcbc"/><path id="path5567" d="M117.07,71a34.94,34.94,0,0,1-15.38,5c-4.18.45-8.47.66-12.63.87-2,.1-4,.2-6,.33-12.57.71-24.91,1.51-37.5,2.33L10.78,81.83v5.39L45.88,84c11.34-1,24.52-2.2,37.39-3.25L92.63,80c3.65-.28,6.64-.58,9.42-.94a82.35,82.35,0,0,0,18.58-4.39,72.14,72.14,0,0,0,16.74-9.5,104.6,104.6,0,0,0,11.78-10.69V52.61c-4.47,4.36-7,6.81-11.93,10-5.85,3.85-15.81,5.9-20.15,8.33" transform="translate(-10.77 -7.05)" style="fill:#bdbcbc"/><path id="path5571" d="M118.84,81.22a92.39,92.39,0,0,1-18.06,3.18c-2.8.25-5.81.43-9.22.57l-9.3.41C59.14,86.45,36.13,87.65,10.78,89v5.38C35,92.5,58.74,90.68,82.47,89l9.27-.63c3.58-.24,6.55-.5,9.34-.81a94.91,94.91,0,0,0,18.5-3.73,73.08,73.08,0,0,0,17.25-8.13,103.07,103.07,0,0,0,12.32-9.33v-.09c-4.64,4-9.06,4.83-13.46,7.49a70.7,70.7,0,0,1-16.85,7.46" transform="translate(-10.77 -7.05)" style="fill:#bdbcbc"/><path id="path5575" d="M118,90.16a110.27,110.27,0,0,1-18,2.5c-2.7.18-5.61.32-9.15.43l-9.22.33c-23.21.87-46.75,1.88-70.81,2.93v5.38c23.9-1.63,47.35-3.22,71-4.7l9.2-.55c3.6-.21,6.54-.41,9.24-.66a114.1,114.1,0,0,0,18.39-3A79.34,79.34,0,0,0,136.11,86a101.3,101.3,0,0,0,13-8.32v-2.3a102.21,102.21,0,0,1-14,8.61A77.54,77.54,0,0,1,118,90.16" transform="translate(-10.77 -7.05)" style="fill:#bdbcbc"/><path id="path5579" d="M117.19,98.93a138.19,138.19,0,0,1-18,1.95c-2.62.13-5.42.23-9.09.31l-79.35,2.15v5.38L81.14,105l9.12-.46c3.56-.17,6.47-.34,9.16-.54a141.78,141.78,0,0,0,18.26-2.45,94.44,94.44,0,0,0,17.71-5.52A110.14,110.14,0,0,0,149.15,89V86.81A107.51,107.51,0,0,1,134.56,94a90.93,90.93,0,0,1-17.37,5" transform="translate(-10.77 -7.05)" style="fill:#bdbcbc"/><path id="path5583" d="M116.57,107.73c-9.74,1.3-19.76,1.45-29.46,1.59q-3.33,0-6.66.12l-69.67,1.25v5.37l69.79-3q3.32-.15,6.65-.27c9.76-.4,19.85-.8,29.72-2.37a110.06,110.06,0,0,0,17.87-4.32,119.3,119.3,0,0,0,14.33-6V98.08a117.33,117.33,0,0,1-15,5.85,107.63,107.63,0,0,1-17.57,3.8" transform="translate(-10.77 -7.05)" style="fill:#bdbcbc"/><path id="path5587" d="M116,116.59c-9.12.75-18.45.75-27.49.75-2.8,0-5.61,0-8.42,0-23.08.1-46,.29-69.32.49v5.37c22.23-.76,45.81-1.54,69.4-2.24,2.8-.1,5.59-.17,8.4-.24,9.08-.23,18.47-.46,27.68-1.46a134.14,134.14,0,0,0,17.91-3.09,128.42,128.42,0,0,0,15-4.74v-2A128.27,128.27,0,0,1,133.68,114,130.63,130.63,0,0,1,116,116.59" transform="translate(-10.77 -7.05)" style="fill:#bdbcbc"/><path id="path5591" d="M115.66,125.32c-3.8.15-7.91.23-12.58.23-1.77,0-3.53,0-5.29,0l-18-.22c-12.25-.09-24.46-.11-35.91-.12l-33.14,0v5.37L44,129.71c11.41-.28,23.65-.57,35.87-.79l17.94-.24c4.92-.08,11.42-.22,18-.65s12.31-1.07,17.93-2c5.06-.81,10.24-1.9,15.41-3.22V121c-5.32,1.22-10.6,2.2-15.73,2.89-5.59.75-11.4,1.23-17.76,1.48" transform="translate(-10.77 -7.05)" style="fill:#bdbcbc"/><path id="path5595" d="M97.58,133.76l-17.89-.19c-22.84-.32-45.64-.74-68.91-1.17v5.37c22.2-.15,45.73-.32,68.92-.58l17.91-.26c6-.11,11.94-.22,17.91-.42a334.31,334.31,0,0,0,33.63-2.62V132a331.69,331.69,0,0,1-33.69,1.78c-5.95,0-11.92,0-17.88,0" transform="translate(-10.77 -7.05)" style="fill:#bdbcbc"/><path id="path5599" d="M149.15,143.26,10.78,139.75v5.36H149.15Z" transform="translate(-10.77 -7.05)" style="fill:#bdbcbc"/><path id="path5603" d="M136.69,53.08c-5.26,4.22-9.32,7.22-15.75,9.78-5.6,2.23-11.62,3.14-18.5,4.08-4.42.62-9,1.53-13.46,1.83-1.82.12-3.63.24-5.45.38l-72.75,5.3v5.39l73.05-7.08,9.47-.89c3.51-.34,6.63-.72,9.53-1.19a74.27,74.27,0,0,0,18.65-5.31c5.67-2.5,11.41-6.6,16.75-11.08a118.46,118.46,0,0,0,10.91-11.07V41.29a136.13,136.13,0,0,1-12.45,11.79" transform="translate(-10.77 -7.05)" style="fill:#bdbcbc"/><path id="path5607" d="M189.52,64H68.29v81.09H189.52Z" transform="translate(-10.77 -7.05)" style="fill:#004494"/><path id="path5661" d="M206.77,7.05s25.27,39.36,29.9,46.6,9.9,13,28.6,16.84,26.85,5.73,26.85,5.73v1.4s-11.89-2.49-27.18-5.83-21.54-4.48-28.51-14c-5.8-7.91-29.66-41.54-29.66-41.54V7.05Z" transform="translate(-10.77 -7.05)" style="fill:#bdbcbc"/><path id="path5665" d="M206.77,18.24s26.12,37.42,29.59,42,8.13,12,28.78,16.34c5.33,1.13,27,5.4,27,5.4v1.19s-16.5-3.18-27-5.4-21.64-4.25-28.71-13.17c-6.43-8.1-29.71-38-29.71-38l.05-8.39Z" transform="translate(-10.77 -7.05)" style="fill:#bdbcbc"/><path id="path5669" d="M206.77,29.48s24.61,31.8,29.59,38.17,11.82,11.6,28.78,14.86c9.77,1.88,27,5,27,5v1.18s-15.07-2.81-27-5-21.74-4.22-28.78-12.13c-6.18-6.94-29.64-34.22-29.64-34.22l.05-7.94Z" transform="translate(-10.77 -7.05)" style="fill:#bdbcbc"/><path id="path5673" d="M206.72,40.53s24.92,28.85,29.71,34c7.46,8,11.08,10.78,28.7,14.13,7.06,1.34,27,4.81,27,4.81v1.25s-16.5-3-27-4.81-19.33-2.53-28.78-11.61C229.16,71.38,206.77,48,206.77,48l-.05-7.44Z" transform="translate(-10.77 -7.05)" style="fill:#bdbcbc"/><path id="path5677" d="M206.77,52s23,23.63,29.66,30.42c7.06,7.19,16.1,9.86,28.63,12C277,96.58,292.11,99,292.11,99v1.33s-14.17-2.27-27.05-4.43c-12.63-2.13-21.47-3.31-28.7-9.84C229.88,80.21,206.77,59,206.77,59V52Z" transform="translate(-10.77 -7.05)" style="fill:#bdbcbc"/><path id="path5681" d="M206.77,62.66s21.88,19.92,29.66,26.73c7.16,6.26,13,8.21,28.71,10.94s27,4.44,27,4.44v1.4s-14.24-2.29-27.05-4.29-21-2.78-28.63-8.87c-8.84-7-29.66-23.84-29.66-23.84V62.66Z" transform="translate(-10.77 -7.05)" style="fill:#bdbcbc"/><path id="path5685" d="M206.72,74.05s25,19.41,29.63,22.81,10.85,7.37,28.78,9.91,26.9,3.77,26.9,3.77V112s-16.12-2.3-26.9-3.63-19-1.89-28.7-8.21C227,94,206.77,80.07,206.77,80.07l-.05-6Z" transform="translate(-10.77 -7.05)" style="fill:#bdbcbc"/><path id="path5689" d="M206.72,85s25,16.34,29.78,18.94,10.33,6.8,28.63,9.09,26.9,3.33,26.9,3.33v1.4l-27-2.88c-11.83-1.26-19.89-3-28.71-7.7s-29.58-16.61-29.58-16.61L206.72,85Z" transform="translate(-10.77 -7.05)" style="fill:#bdbcbc"/><path id="path5693" d="M206.77,95.85s22.16,11.81,29.66,15.5c8.36,4.12,15.6,6.09,28.71,7.62,12.87,1.5,27,3,27,3v1.33s-13-1.37-27-2.66-18.74-1.88-28.71-6.22c-8.92-3.87-29.71-13.36-29.71-13.36l.05-5.17Z" transform="translate(-10.77 -7.05)" style="fill:#bdbcbc"/><path id="path5697" d="M206.77,106.94s17.43,7.32,29.73,12.1c12.11,4.71,21.36,5.11,28.71,5.92,3.24.36,26.83,2.74,26.83,2.74V129s-14.1-1.1-26.9-2.21-18.34-1.58-28.71-5-29.71-10-29.71-10l.05-4.93Z" transform="translate(-10.77 -7.05)" style="fill:#bdbcbc"/><path id="path5701" d="M206.77,118.18s17.68,5.37,29.73,8.48a165,165,0,0,0,28.71,4.73c5.58.37,26.83,2.07,26.83,2.07v1.26s-12.06-.81-26.9-1.85c-12-.84-21.65-1.72-28.71-3.25-7.82-1.7-29.71-6.8-29.71-6.8l.05-4.64Z" transform="translate(-10.77 -7.05)" style="fill:#bdbcbc"/><path id="path5705" d="M206.72,129.27s14.51,2.45,29.78,4.93c11.46,1.87,27,3,28.63,3.11s27,1.78,27,1.78v1.32s-16.2-.81-27-1.4c-11.22-.61-22.37-1.27-28.7-1.92-14.19-1.45-29.71-3.38-29.71-3.38Z" transform="translate(-10.77 -7.05)" style="fill:#bdbcbc"/><path id="path5709" d="M206.77,140.76s22.8.84,29.73,1,55.61,2.07,55.61,2.07v1.33l-85.34-.05v-4.34Z" transform="translate(-10.77 -7.05)" style="fill:#bdbcbc"/></g></g><g id="Calque_6" data-name="Calque 6"><path id="path5611" d="M130.22,75.55h4.21L131,78.2l1.32,4.2L129,79.81l-3.39,2.59,1.34-4.2-3.43-2.65h4.21l1.27-4.1,1.25,4.1Z" transform="translate(-10.77 -7.05)" style="fill:#ffed00"/><path id="path5615" d="M130.37,129.63h4.22l-3.4,2.55,1.32,4-3.39-2.49-3.38,2.49,1.33-4-3.43-2.55h4.21l1.27-3.94Z" transform="translate(-10.77 -7.05)" style="fill:#ffed00"/><path id="path5619" d="M143.74,126.05H148l-3.4,2.55,1.32,4-3.39-2.5-3.38,2.5,1.33-4L137,126.05h4.21l1.27-4Z" transform="translate(-10.77 -7.05)" style="fill:#ffed00"/><path id="path5623" d="M143.74,79.16H148l-3.4,2.55,1.32,4-3.39-2.49-3.38,2.49,1.33-4L137,79.16h4.21l1.27-3.94Z" transform="translate(-10.77 -7.05)" style="fill:#ffed00"/><path id="path5627" d="M153.68,89.09h4.21l-3.4,2.54,1.33,4.05-3.39-2.49-3.38,2.49,1.33-4.05L147,89.09h4.2l1.28-4Z" transform="translate(-10.77 -7.05)" style="fill:#ffed00"/><path id="path5631" d="M153.68,116.25h4.21l-3.4,2.56,1.33,4-3.39-2.49-3.38,2.49,1.33-4L147,116.25h4.2l1.28-3.94Z" transform="translate(-10.77 -7.05)" style="fill:#ffed00"/><path id="path5635" d="M157.4,102.46h4.22l-3.4,2.55,1.32,4-3.38-2.5-3.39,2.5,1.34-4-3.44-2.55h4.21l1.27-3.94Z" transform="translate(-10.77 -7.05)" style="fill:#ffed00"/><path id="path5639" d="M116.58,79.19h4.22l-3.4,2.55,1.32,4-3.39-2.49-3.39,2.49,1.34-4-3.43-2.55h4.21l1.27-3.94,1.25,3.94Z" transform="translate(-10.77 -7.05)" style="fill:#ffed00"/><path id="path5643" d="M106.92,89.12h4.23l-3.4,2.55,1.31,4-3.38-2.5-3.38,2.5,1.32-4-3.43-2.55h4.22l1.27-3.94,1.24,3.94Z" transform="translate(-10.77 -7.05)" style="fill:#ffed00"/><path id="path5647" d="M103.34,102.5h4.22l-3.4,2.55,1.32,4-3.38-2.49-3.39,2.49,1.33-4-3.42-2.55h4.2l1.28-3.94Z" transform="translate(-10.77 -7.05)" style="fill:#ffed00"/><path id="path5651" d="M106.92,116.29h4.23l-3.4,2.55,1.31,4-3.38-2.5-3.38,2.5,1.32-4-3.43-2.55h4.22l1.27-3.94,1.24,3.94Z" transform="translate(-10.77 -7.05)" style="fill:#ffed00"/><path id="path5655" d="M116.72,126.08h4.22l-3.4,2.55,1.31,4-3.38-2.49-3.39,2.49,1.34-4L110,126.08h4.21l1.27-3.94Z" transform="translate(-10.77 -7.05)" style="fill:#ffed00"/></g></g><g id="Calque_4" data-name="Calque 4"><path id="path5657" d="M523.53,66.82v79.42h9.83V66.82Z" transform="translate(-10.77 -7.05)" style="fill:#004494"/></g><g id="Calque_5" data-name="Calque 5"><path id="path5781" d="M505.37,146.85h-3.06c-.56,0-.82-.26-.82-.8l.05-12c0-2.51-.59-4.17-3.06-4.17-1.7,0-4.68,1.36-5.84,1.92v14.22c0,.51-.21.8-.8.8h-3c-.59,0-.8-.26-.8-.8V126.84c0-.55.21-.84.8-.84h3c.59,0,.8.29.8.84v1.29c.05,0,.09,0,.13,0a14.24,14.24,0,0,1,7.15-2.55c5.75,0,6.27,3.8,6.27,8.09v12.35c0,.51-.18.8-.82.8" transform="translate(-10.77 -7.05)" style="fill:#404040"/><path id="path5713" d="M306.42,74.52a.75.75,0,0,1,.85-.86h15.66a.75.75,0,0,1,.82.81v2.65c0,.51-.21.77-.85.77H311.28V85.2h10.29c.56,0,.86.26.86.77v2.64c0,.51-.22.76-.86.76H311.28v8.39h11.91c.51,0,.77.26.77.81v2.59c0,.56-.21.77-.81.77H307.27c-.59,0-.85-.26-.85-.77V74.52Z" transform="translate(-10.77 -7.05)" style="fill:#404040"/><path id="path5717" d="M343.7,101.93h-3c-.64,0-.81-.29-.81-.8V99.8l-.08,0a14,14,0,0,1-7.15,2.55c-5.75,0-6.3-3.4-6.3-7.87V81.92c0-.51.21-.84.8-.84h3.11c.55,0,.77.29.77.84v12c0,2.57.51,4.17,3.11,4.17,1.83,0,4.63-1.36,5.74-1.91V81.92c0-.51.17-.84.8-.84h3c.59,0,.8.29.8.84v19.21c0,.54-.21.8-.8.8" transform="translate(-10.77 -7.05)" style="fill:#404040"/><path id="path5721" d="M352.81,101.12a.71.71,0,0,1-.81.81h-3.07c-.59,0-.81-.25-.81-.81V81.93c0-.56.22-.86.81-.86h3a.76.76,0,0,1,.86.86v1.86l.08.09a15.93,15.93,0,0,1,6.3-3c.56-.13.93,0,1,.72l.29,2.85c0,.61.09.85-.81,1a40.91,40.91,0,0,0-6.89,2v13.71Z" transform="translate(-10.77 -7.05)" style="fill:#404040"/><path id="path5725" d="M370.72,84.73c-3.61,0-4.43,2.31-4.43,6.73s.82,6.73,4.39,6.73c3.87,0,4.64-2.18,4.64-6.73s-.72-6.73-4.6-6.73m0,17.55c-8.55,0-9.11-6.27-9.11-11.12,0-4,.89-10.52,9.11-10.52s9.41,5.5,9.41,10.52c0,4.85-.6,11.12-9.41,11.12" transform="translate(-10.77 -7.05)" style="fill:#404040"/><path id="path5729" d="M392.81,85c-1.75,0-4.43,1.23-5.71,1.92V97.54a16.81,16.81,0,0,0,4.9.73c3.07,0,4.13-1.58,4.13-6.93S395.07,85,392.81,85m-.34,17.33a16.68,16.68,0,0,1-5.32-.95l0,0v7.5c0,.46-.12.85-.8.85h-3c-.67,0-.8-.3-.8-.85v-27c0-.56.21-.85.8-.85h3c.6,0,.76.33.76.85v1.28l.14.08c1.52-1.06,4.25-2.55,6.72-2.55,5.57,0,7,4.21,7,10.64,0,6.94-1.75,10.94-8.47,10.94" transform="translate(-10.77 -7.05)" style="fill:#404040"/><path id="path5733" d="M408.3,89.59h8.43c0-2.6-.69-5.11-4.21-5.11-3.16,0-4,1.92-4.22,5.11m-.05,3.19c.13,4.3,1.67,5.5,5.15,5.5,1.54,0,3.92-.31,5.54-.48.77-.08,1-.08,1.16.72l.24,1.41c.13.64.05,1-.72,1.32a23,23,0,0,1-6.85,1.07c-8.14,0-9.33-5.19-9.33-10.73,0-4.13.77-10.94,9.08-10.94,7.61,0,9,4.94,9.1,9.53.05,1.53-.38,2.6-2.08,2.6Z" transform="translate(-10.77 -7.05)" style="fill:#404040"/><path id="path5737" d="M436.68,92.44h-5.19c-2.12,0-3.49.77-3.49,3.58,0,1.87.63,2.47,2.64,2.47a14.37,14.37,0,0,0,6-2v-4Zm.26,7.07a13.31,13.31,0,0,1-7.83,2.76c-4.52,0-5.83-2.47-5.83-6,0-5,2.63-7.11,8-7.11h5.45V88c0-2.56-.94-3.46-4.43-3.46-1.41,0-4.09.22-5.79.38-.85.13-1.07.09-1.19-.51l-.39-1.57c-.08-.55.05-.9,1-1.27a26.81,26.81,0,0,1,7.19-.94c7.37,0,8.26,3,8.26,7.79v8.22c0,1.74.21,1.78,1.53,2,.64,0,.81.17.81.64V101c0,.46-.3.76-1,.89a10.88,10.88,0,0,1-2,.21c-2,0-3.24-.59-3.66-2.59l-.09,0Z" transform="translate(-10.77 -7.05)" style="fill:#404040"/><path id="path5741" d="M462.26,101.93H459.2c-.56,0-.82-.26-.82-.8l.05-12c0-2.51-.59-4.17-3.06-4.17-1.7,0-4.68,1.36-5.84,1.92v14.22c0,.51-.21.8-.8.8h-3c-.59,0-.8-.26-.8-.8V81.92c0-.54.21-.84.8-.84h3c.59,0,.8.29.8.84v1.29c.05,0,.09,0,.13,0a14.12,14.12,0,0,1,7.15-2.56c5.75,0,6.27,3.8,6.27,8.09v12.35c0,.51-.18.8-.82.8" transform="translate(-10.77 -7.05)" style="fill:#404040"/><path id="path5745" d="M317.53,118.29a23.17,23.17,0,0,1,7.79,1.23c.69.3.93.65.8,1.32l-.38,1.75c-.13.51-.34.72-1.11.64a58.25,58.25,0,0,0-6.84-.56c-5.79,0-6.64,4.68-6.64,10.22s1.06,10,6.64,10a51.9,51.9,0,0,0,6.84-.55c.82-.09,1,.13,1.16.68l.33,1.62a1,1,0,0,1-.72,1.36,24.28,24.28,0,0,1-7.87,1.28c-9.49,0-11.49-7-11.49-14.27s1.78-14.68,11.49-14.68" transform="translate(-10.77 -7.05)" style="fill:#404040"/><path id="path5749" d="M335.79,129.65c-3.62,0-4.44,2.31-4.44,6.73s.82,6.72,4.39,6.72c3.88,0,4.64-2.17,4.64-6.72s-.72-6.73-4.59-6.73m-.05,17.54c-8.55,0-9.1-6.26-9.1-11.11,0-4,.88-10.52,9.1-10.52s9.41,5.5,9.41,10.52c0,4.85-.59,11.11-9.41,11.11" transform="translate(-10.77 -7.05)" style="fill:#404040"/><path id="path5753" d="M377.33,146.85h-3.07c-.6,0-.81-.26-.81-.8V134c0-3.15-.76-4-2.9-4-1.57,0-4.12,1.23-5.44,1.92,0,.42,0,1.19,0,2.16v12.06c0,.51-.16.8-.8.8h-3.11c-.56,0-.72-.26-.72-.8V133.74c0-2.6-.69-3.83-2.82-3.83-1.48,0-3.87,1.07-5.49,1.92v14.22c0,.51-.21.8-.81.8h-3.06c-.55,0-.77-.26-.77-.8V126.84c0-.55.22-.84.77-.84h3c.64,0,.85.33.85.84v1.24l.05,0a12.52,12.52,0,0,1,6.34-2.52c2.46,0,4.51.51,5.83,3,2.13-1.57,4.76-3,7.5-3,5.61,0,6.17,3.66,6.17,7.92v12.52c0,.51-.18.8-.77.8" transform="translate(-10.77 -7.05)" style="fill:#404040"/><path id="path5757" d="M410.69,146.85h-3.06c-.6,0-.82-.26-.82-.8V134c0-3.15-.75-4-2.89-4-1.58,0-4.13,1.23-5.44,1.92,0,.42,0,1.19,0,2.16v12.06c0,.51-.17.8-.81.8H394.6c-.55,0-.72-.26-.72-.8V133.74c0-2.6-.68-3.83-2.81-3.83-1.49,0-3.88,1.07-5.5,1.92v14.22c0,.51-.21.8-.8.8h-3.06c-.56,0-.77-.26-.77-.8V126.84c0-.55.21-.84.77-.84h3c.64,0,.85.33.85.84v1.24l.05,0a12.52,12.52,0,0,1,6.35-2.52c2.46,0,4.5.51,5.82,3,2.13-1.57,4.77-3,7.5-3,5.61,0,6.17,3.66,6.17,7.92v12.52c0,.51-.18.8-.77.8" transform="translate(-10.77 -7.05)" style="fill:#404040"/><path id="path5761" d="M419.58,146c0,.46-.17.81-.77.81h-3c-.59,0-.85-.25-.85-.81V126.8c0-.59.26-.81.85-.81h3c.6,0,.77.35.77.81Zm-2.26-23.11c-2.21,0-2.51-1.24-2.51-2.47s.46-2.43,2.51-2.43,2.52,1,2.52,2.43-.39,2.47-2.52,2.47" transform="translate(-10.77 -7.05)" style="fill:#404040"/><path id="path5765" d="M430.13,147.19a21.09,21.09,0,0,1-6.6-.93c-.85-.34-1-.73-.89-1.41l.29-1.4c.13-.69.43-.72,1.11-.64a48.34,48.34,0,0,0,6,.51c2.73,0,3.84-.73,3.84-2.43,0-2-.73-2.38-3.41-2.76-4.17-.61-7.83-1.49-7.83-6.14,0-4.21,3.23-6.42,8-6.42a21.15,21.15,0,0,1,6.46.94c.72.29,1,.63.9,1.27l-.34,1.53c-.13.6-.38.68-1.15.6-1.83-.21-4.22-.47-5.79-.47-2.72,0-3.36.77-3.36,2.39s1,1.86,3.62,2.29c4,.6,7.69,1.41,7.69,6.48s-4.2,6.59-8.59,6.59" transform="translate(-10.77 -7.05)" style="fill:#404040"/><path id="path5769" d="M448,147.19a21.09,21.09,0,0,1-6.6-.93c-.85-.34-1-.73-.89-1.41l.29-1.4c.13-.69.43-.72,1.11-.64a48.34,48.34,0,0,0,6,.51c2.73,0,3.84-.73,3.84-2.43,0-2-.73-2.38-3.41-2.76-4.17-.61-7.83-1.49-7.83-6.14,0-4.21,3.23-6.42,8-6.42a21.15,21.15,0,0,1,6.46.94c.72.29,1,.63.9,1.27l-.34,1.53c-.13.6-.38.68-1.15.6-1.83-.21-4.22-.47-5.79-.47-2.72,0-3.36.77-3.36,2.39s1,1.86,3.62,2.29c4,.6,7.69,1.41,7.69,6.48s-4.2,6.59-8.59,6.59" transform="translate(-10.77 -7.05)" style="fill:#404040"/><path id="path5773" d="M464.05,146c0,.46-.17.81-.77.81h-3c-.59,0-.85-.25-.85-.81V126.8c0-.59.26-.81.85-.81h3c.6,0,.77.35.77.81Zm-2.26-23.11c-2.21,0-2.51-1.24-2.51-2.47s.47-2.43,2.51-2.43,2.52,1,2.52,2.43-.39,2.47-2.52,2.47" transform="translate(-10.77 -7.05)" style="fill:#404040"/><path id="path5777" d="M476.35,129.65c-3.62,0-4.42,2.31-4.42,6.73s.8,6.72,4.37,6.72c3.88,0,4.64-2.17,4.64-6.72s-.72-6.73-4.59-6.73m-.05,17.54c-8.55,0-9.1-6.26-9.1-11.11,0-4,.88-10.52,9.1-10.52s9.41,5.5,9.41,10.52c0,4.85-.59,11.11-9.41,11.11" transform="translate(-10.77 -7.05)" style="fill:#404040"/></g></svg>